HIERARCHY
ROOT Hips
{
	OFFSET 0.0000 0.0000 0.0000
	CHANNELS 6 Xposition Yposition Zposition Zrotation Xrotation Yrotation
	JOINT Spine1
	{
		OFFSET -0.0137 5.0038 -0.0537
		CHANNELS 3 Zrotation Xrotation Yrotation
		JOINT Spine2
		{
			OFFSET -0.0000 7.1253 -0.0298
			CHANNELS 3 Zrotation Xrotation Yrotation
			JOINT Chest
			{
				OFFSET -0.0000 7.5501 -0.8160
				CHANNELS 3 Zrotation Xrotation Yrotation
				JOINT Neck1
				{
					OFFSET -0.1817 26.3113 -0.5533
					CHANNELS 3 Zrotation Xrotation Yrotation
					JOINT Neck2
					{
						OFFSET -0.0000 7.7094 2.3026
						CHANNELS 3 Zrotation Xrotation Yrotation
						JOINT Head
						{
							OFFSET -0.0000 6.1289 1.9537
							CHANNELS 3 Zrotation Xrotation Yrotation
							JOINT Jaw
							{
								OFFSET 0.0026 0.4756 3.0949
								CHANNELS 3 Zrotation Xrotation Yrotation
								End Site
								{
									OFFSET 0.0 1.0 0.0
								}
							}
							JOINT LeftEye
							{
								OFFSET 3.2064 5.3802 7.5869
								CHANNELS 3 Zrotation Xrotation Yrotation
								End Site
								{
									OFFSET 0.0 1.0 0.0
								}
							}
							JOINT RightEye
							{
								OFFSET -3.2224 5.3619 7.5582
								CHANNELS 3 Zrotation Xrotation Yrotation
								End Site
								{
									OFFSET 0.0 1.0 0.0
								}
							}
						}
					}
				}
				JOINT LeftShoulder
				{
					OFFSET 1.6217 23.2372 5.1134
					CHANNELS 3 Zrotation Xrotation Yrotation
					JOINT LeftArm
					{
						OFFSET 14.9198 0.0000 -5.5023
						CHANNELS 3 Zrotation Xrotation Yrotation
						JOINT LeftForeArm
						{
							OFFSET 28.7393 0.0000 -0.0026
							CHANNELS 3 Zrotation Xrotation Yrotation
							JOINT LeftHand
							{
								OFFSET 27.0940 -0.0000 0.0026
								CHANNELS 3 Zrotation Xrotation Yrotation
								JOINT LeftHandThumbEnd
								{
									OFFSET 12.2686 -3.2202 4.8331
									CHANNELS 3 Zrotation Xrotation Yrotation
									End Site
									{
										OFFSET 0.0 1.0 0.0
									}
								}
								JOINT LeftHandMiddleEnd
								{
									OFFSET 19.0120 -0.3129 -0.0340
									CHANNELS 3 Zrotation Xrotation Yrotation
									End Site
									{
										OFFSET 0.0 1.0 0.0
									}
								}
							}
						}
					}
				}
				JOINT RightShoulder
				{
					OFFSET -1.3801 23.1803 5.2142
					CHANNELS 3 Zrotation Xrotation Yrotation
					JOINT RightArm
					{
						OFFSET -15.0372 0.0000 -5.5456
						CHANNELS 3 Zrotation Xrotation Yrotation
						JOINT RightForeArm
						{
							OFFSET -28.7366 0.0000 -0.0026
							CHANNELS 3 Zrotation Xrotation Yrotation
							JOINT RightHand
							{
								OFFSET -27.1336 -0.0000 0.0026
								CHANNELS 3 Zrotation Xrotation Yrotation
								JOINT RightHandThumbEnd
								{
									OFFSET -12.2642 -3.2115 4.8040
									CHANNELS 3 Zrotation Xrotation Yrotation
									End Site
									{
										OFFSET 0.0 1.0 0.0
									}
								}
								JOINT RightHandMiddleEnd
								{
									OFFSET -19.0006 -0.3066 -0.0316
									CHANNELS 3 Zrotation Xrotation Yrotation
									End Site
									{
										OFFSET 0.0 1.0 0.0
									}
								}
							}
						}
					}
				}
			}
		}
	}
	JOINT LeftLeg
	{
		OFFSET 10.0432 -8.4345 2.5957
		CHANNELS 3 Zrotation Xrotation Yrotation
		JOINT LeftShin
		{
			OFFSET -0.0000 -43.2218 -0.8029
			CHANNELS 3 Zrotation Xrotation Yrotation
			JOINT LeftFoot
			{
				OFFSET 0.0000 -42.1551 -3.4815
				CHANNELS 3 Zrotation Xrotation Yrotation
				JOINT LeftToeBase
				{
					OFFSET 0.0000 -5.0595 13.2315
					CHANNELS 3 Zrotation Xrotation Yrotation
					End Site
					{
						OFFSET 0.0 1.0 0.0
					}
				}
			}
		}
	}
	JOINT RightLeg
	{
		OFFSET -10.0473 -8.2953 2.6203
		CHANNELS 3 Zrotation Xrotation Yrotation
		JOINT RightShin
		{
			OFFSET 0.0000 -43.3622 -0.8056
			CHANNELS 3 Zrotation Xrotation Yrotation
			JOINT RightFoot
			{
				OFFSET 0.0000 -42.1174 -3.4784
				CHANNELS 3 Zrotation Xrotation Yrotation
				JOINT RightToeBase
				{
					OFFSET -0.0000 -5.0796 13.2842
					CHANNELS 3 Zrotation Xrotation Yrotation
					End Site
					{
						OFFSET 0.0 1.0 0.0
					}
				}
			}
		}
	}
}
MOTION
Frames: 12
Frame Time: 0.033333
-5.7231 13.0890 -52.2648 161.5188 -75.4747 -163.7896 3.0551 6.1387 -0.5955 1.7740 -3.0813 0.5782 -0.3107 5.4570 -0.9217 7.2407 -2.2955 4.6138 2.0947 -3.8965 -5.2847 1.4267 -4.6063 -13.0190 0.0783 -0.0527 0.2193 0.2075 -9.0243 -3.0044 -0.0572 -9.2787 3.4599 15.6618 8.2246 -6.0803 -70.7004 7.0474 52.5650 -1.5614 2.4386 -48.0424 -27.9253 14.9978 6.9246 -14.6115 9.7310 14.8526 -57.2993 1.1184 1.1842 -19.2533 12.4057 14.0683 61.1726 -10.8049 -65.9919 -2.8119 2.7471 92.4670 -42.1710 -52.2657 53.2943 17.5010 7.1854 -15.7098 57.5486 -1.6819 -6.1967 28.5718 -2.7624 8.8252 2.6708 33.5000 1.8712 -20.8215 -6.4522 25.9045 0.5823 -3.6245 -1.9052 -56.5432 -37.2033 -7.4425 179.3655 60.4448 177.1352 35.1326 -12.9598 4.3648 -0.7391 -3.0499 -0.0834
-6.2767 12.5349 -51.7381 150.0152 -76.7277 -152.3279 3.2660 4.6269 -0.1489 1.8486 -3.4495 0.6970 -0.0100 4.8721 -0.7855 6.6095 -4.7715 5.3143 1.8865 -4.0269 -6.2142 1.2384 -4.3293 -13.7591 0.0732 -0.0786 0.2413 0.1792 -8.6846 -2.8638 -0.0322 -9.0241 3.3667 16.4389 8.1004 -5.5016 -69.3962 8.0771 54.0410 -0.9895 2.5782 -49.6002 -27.8238 15.0474 6.2611 -15.2078 9.6901 15.0389 -58.1060 1.2284 1.1637 -20.9455 11.8128 15.0285 59.1518 -7.0300 -65.5092 -4.0292 2.0339 90.0996 -36.3666 -51.9883 43.5592 18.6553 8.1845 -16.6474 59.3098 -1.4416 -6.8243 28.6932 -4.1090 15.1012 2.0593 31.8980 2.0643 -22.6632 -3.3094 28.0968 0.5176 -3.4510 -1.6626 -56.5604 -43.8923 -9.7473 -179.5536 59.6047 177.5757 32.8371 -7.5060 6.6746 -0.4631 -2.4874 -0.2861
-6.6070 11.9582 -51.0518 141.8612 -77.6438 -143.9895 3.2435 3.9304 -0.0201 1.9156 -3.5901 0.6678 0.2177 4.0124 -0.6252 6.3931 -6.6964 5.6841 1.9174 -4.0985 -6.6836 0.7804 -4.3638 -13.9115 0.0214 -0.0984 0.2643 0.2011 -8.6538 -2.8173 -0.1559 -9.0940 3.3799 17.2259 7.9834 -5.5703 -68.4776 8.6997 54.4623 -1.1019 2.0836 -50.9190 -28.0147 12.8892 5.8881 -15.5204 9.7502 15.1889 -58.2378 1.2775 1.0509 -22.2880 11.6136 16.1962 58.0550 -4.7923 -65.2120 -3.5768 2.2008 87.6660 -30.2966 -51.5103 35.0161 19.1828 8.3614 -16.6936 58.8275 -1.4994 -6.7965 28.6108 -5.8167 19.4147 1.6232 30.8268 2.0677 -22.4074 -0.5168 28.5543 0.5096 -3.6964 -1.5278 -54.9533 -48.5709 -11.6519 -178.8263 59.5526 178.0265 31.8743 -3.3378 6.5717 -0.3752 -2.3435 -0.3508
-6.9584 11.2348 -50.3582 136.2882 -78.0839 -138.2646 3.1321 3.7110 -0.1063 1.9532 -3.5256 0.7210 0.4534 3.3372 -0.4146 7.0785 -8.0115 5.4021 1.8607 -4.1231 -6.4980 -0.1106 -4.9980 -13.5568 -0.0621 -0.1272 0.3175 0.2492 -8.6466 -2.7518 -0.3713 -9.2346 3.4469 17.9709 7.9609 -5.1917 -68.1211 9.1363 53.1559 -1.0363 1.5446 -51.9815 -28.1697 9.4798 6.0228 -15.7372 9.3990 14.9219 -58.0010 1.0106 0.9701 -23.4461 11.2982 16.9881 57.5264 -3.6333 -64.1257 -2.8448 2.6987 85.1154 -24.1235 -50.7803 27.4965 19.5171 8.3655 -16.7076 57.4321 -1.6090 -6.5423 28.5731 -7.2531 21.9837 1.4625 30.3982 2.0964 -21.4474 2.4588 28.2403 0.5957 -3.7792 -1.5269 -52.4841 -51.0626 -13.4231 -178.2661 60.5471 178.7205 30.9894 -0.9156 6.2279 -0.4514 -2.3089 -0.2740
-7.1238 10.7343 -49.6366 131.6995 -78.4065 -133.3411 2.7004 3.4802 -0.2252 1.9541 -3.8691 0.7109 0.7089 3.4353 -0.1662 7.5333 -9.2106 4.9242 1.9592 -4.0599 -6.2081 0.3915 -5.5214 -13.2973 -0.0297 -0.1633 0.2712 0.3179 -8.8363 -2.8419 -0.3712 -9.4458 3.4364 18.6347 7.8933 -4.8134 -68.4108 8.7940 52.4921 -0.6478 1.5013 -51.5916 -28.5554 8.3408 5.8123 -15.8819 9.5392 15.2901 -58.0480 0.9120 1.3750 -24.1044 10.8423 17.4754 57.2644 -3.1143 -62.7981 -2.6680 3.0323 83.0496 -21.2196 -50.3541 23.8328 19.2780 8.6751 -16.9409 57.3320 -1.7104 -6.1546 28.0533 -8.8249 23.4167 1.2119 30.1136 2.0037 -20.3394 3.5675 28.3382 0.5455 -3.8507 -1.5313 -50.9277 -52.9531 -14.2595 -177.7768 60.7515 178.9004 31.4564 1.5681 5.3937 -0.5463 -2.0306 -0.3418
-7.2367 10.1960 -49.1658 128.3353 -78.9331 -129.9505 2.5650 3.3699 -0.3097 1.9272 -3.9311 0.7620 0.7782 3.2770 -0.0837 8.5944 -10.0927 4.2567 2.0286 -3.9478 -5.9035 0.4591 -6.1363 -13.1434 0.0392 -0.1484 0.2283 0.4082 -8.7713 -2.9229 -0.3183 -9.4129 3.4046 19.0941 7.7902 -4.4412 -68.3397 7.9708 52.5003 -0.4264 1.5577 -50.2756 -28.5470 8.1703 5.7088 -15.9093 9.5383 15.4951 -58.1208 0.9316 1.5847 -24.0657 10.4128 17.5137 57.1091 -3.2113 -61.6732 -2.8127 3.1947 80.6224 -18.1379 -49.5671 20.3967 19.1415 8.7268 -16.6413 57.2527 -1.5604 -5.7216 27.7424 -10.3521 24.1912 1.1350 29.4596 1.9775 -19.2437 3.7746 28.2819 0.5294 -3.8000 -1.5627 -48.3177 -53.5941 -16.9709 -177.7174 63.2292 178.9417 31.7607 3.0156 4.5806 -0.6113 -1.8908 -0.3449
-7.2696 9.8154 -48.9260 124.4646 -79.5218 -126.1917 2.5911 3.3287 -0.1952 1.8164 -3.7593 0.8293 0.7592 2.7332 -0.1484 9.7840 -10.7002 3.9019 2.0248 -3.8564 -5.8356 0.2529 -6.7753 -13.0036 0.0908 -0.1351 0.1636 0.4601 -8.5673 -2.9987 -0.2612 -9.2234 3.3250 19.2961 7.4194 -4.0324 -67.8607 6.9780 52.4101 -0.0725 1.1879 -48.4508 -27.7570 8.8452 6.0579 -15.8649 9.7236 15.7321 -58.7041 0.8907 1.6804 -23.8429 9.8956 17.4773 57.0352 -3.2225 -61.1450 -2.7548 3.1297 78.4783 -15.5887 -48.5253 17.1487 19.1322 8.5251 -16.0030 56.8062 -1.3461 -5.5438 27.4185 -11.8186 24.7863 0.9631 28.6272 1.9856 -17.9975 4.0744 27.8876 0.6036 -3.4997 -1.6430 -45.0158 -54.0376 -21.4375 -177.8529 66.9896 178.7052 30.9344 4.0484 3.3617 -0.5502 -2.0646 -0.3360
-7.3371 8.8564 -48.7439 121.7241 -79.7168 -123.3831 2.5065 3.4251 0.0517 1.3826 -4.0077 1.1946 1.3143 3.0706 -0.3136 9.4705 -11.3413 3.9510 1.8754 -4.0310 -6.3387 0.7868 -7.2975 -12.7214 0.0346 -0.1857 0.1994 0.4940 -8.8862 -3.0076 -0.4100 -9.6473 3.4343 19.4290 7.6018 -3.9645 -68.4361 5.5025 51.9981 0.4274 1.2612 -45.7256 -26.9507 9.1692 6.8714 -15.9801 9.4718 15.4634 -58.7136 0.7747 1.7277 -24.1253 9.6992 17.5119 57.4723 -3.4924 -61.8260 -2.5213 2.6420 76.4569 -13.4331 -48.9236 14.7713 19.1132 8.5548 -16.1343 56.7997 -1.3908 -5.8311 26.7095 -13.4741 25.1993 1.2394 28.1704 2.0213 -17.2289 4.6070 27.6314 0.5971 -3.0459 -1.5897 -41.7404 -54.5476 -26.3126 -178.3760 70.7854 177.8227 30.2076 4.8010 3.3445 -0.4067 -1.9536 -0.4671
-7.3007 8.0890 -48.6834 117.3382 -79.5851 -119.0177 2.5828 3.2045 0.4515 1.3087 -4.2234 1.4173 1.6119 3.5976 -0.2612 9.7076 -11.5424 3.4649 1.6117 -4.0850 -6.3479 1.4520 -8.2071 -12.7534 -0.0285 -0.1707 0.2296 0.3997 -8.9075 -2.9854 -0.4424 -9.6627 3.4963 19.2581 7.4183 -3.9138 -68.5124 4.4167 50.9254 1.3450 0.9839 -43.2301 -26.4187 9.5014 7.4033 -15.7905 9.6343 15.5531 -59.1778 0.9387 1.7391 -24.2278 9.9902 17.5551 58.3302 -4.5457 -62.9982 -1.9169 2.0813 74.4333 -13.4358 -49.3628 14.7152 19.6914 8.4781 -16.4354 56.4478 -1.5688 -5.9399 26.1504 -14.5250 25.9872 0.9856 27.3740 1.9384 -16.6791 3.1301 27.9619 0.5467 -2.8590 -1.3936 -39.3788 -55.9256 -29.5830 -178.4630 71.9421 177.3431 29.1326 5.1349 2.8285 -0.2068 -2.2092 -0.4138
-7.1723 7.8042 -48.7429 114.5018 -79.3630 -116.1590 2.7521 3.0075 0.7174 1.4654 -4.3688 1.5192 1.5791 4.0699 -0.1516 9.8175 -11.7497 3.1945 1.7264 -4.1727 -6.1703 1.7719 -8.5729 -12.5937 -0.0320 -0.1775 0.2500 0.3708 -9.0423 -2.9933 -0.4184 -9.7685 3.5406 19.2022 7.4208 -4.0065 -68.7225 3.8717 49.8472 2.1654 1.2834 -41.3659 -26.0114 9.6928 7.3273 -15.7200 9.8431 15.6732 -59.5679 1.0302 1.8364 -24.4198 9.9808 17.7562 58.7560 -4.6532 -62.8576 -2.0593 2.1060 72.7022 -14.0052 -49.5217 15.2014 20.0488 8.5270 -16.7016 56.6929 -1.6845 -5.8382 25.7627 -14.8603 26.6221 0.6806 26.8005 1.9128 -16.3621 2.2040 28.0817 0.5009 -2.8773 -1.3463 -38.4045 -57.1227 -30.5861 -178.5369 72.0711 177.1001 28.2476 5.2950 2.2573 -0.2038 -2.3911 -0.3893
-7.0068 7.8108 -48.8969 112.4832 -79.1745 -114.0453 2.9176 2.9020 0.8995 1.6687 -4.4285 1.5670 1.4432 4.2339 -0.0687 9.6939 -11.8594 3.0628 2.0345 -4.2016 -5.7887 1.5884 -8.6744 -12.2632 -0.0233 -0.1854 0.2343 0.3684 -9.1393 -3.0331 -0.4003 -9.8832 3.5458 19.1534 7.5060 -4.1777 -68.9351 3.7807 49.1066 2.7134 1.3589 -40.1066 -25.8046 10.1114 6.7238 -15.7505 9.9234 15.6617 -59.6521 1.0816 1.9081 -24.5135 9.9845 18.0170 58.9836 -4.4893 -62.1675 -2.3802 2.2553 71.1203 -13.6888 -49.3367 15.2251 19.8588 8.4884 -16.6477 56.4599 -1.7278 -5.5914 25.2495 -14.8906 27.3584 0.5305 26.1562 1.9028 -16.0951 1.6466 28.4817 0.4476 -2.9248 -1.3053 -37.9847 -57.9684 -30.7774 -178.4785 72.2059 177.1213 27.7949 5.6816 1.8788 -0.2867 -2.4090 -0.4056
-6.7789 7.8301 -49.1408 111.4817 -78.9496 -113.0017 3.0502 2.9550 1.0630 1.7663 -4.4189 1.6003 1.4875 4.2180 0.0140 9.3872 -11.7142 3.0473 2.2884 -4.1710 -5.4588 1.5718 -8.6021 -11.9481 -0.0480 -0.1949 0.2357 0.3471 -9.1895 -3.0303 -0.4317 -9.9541 3.5540 19.1406 7.4339 -4.2382 -69.2161 3.8516 48.4437 3.1086 1.3555 -39.1609 -25.5442 10.6126 6.2193 -15.8712 9.8824 15.5512 -59.6280 1.0759 1.9312 -24.6652 9.9189 18.0755 59.2661 -4.2721 -60.9971 -2.8322 2.2702 69.4932 -12.4225 -48.6900 14.6748 19.4631 8.3913 -16.4410 56.0357 -1.6588 -5.3332 24.8271 -14.8151 28.1193 0.5211 25.6150 1.9689 -15.9248 1.2640 29.1098 0.4213 -2.8924 -1.3130 -37.4768 -58.4364 -30.9643 -178.3903 72.5048 177.2142 27.5432 5.8436 1.6312 -0.3925 -2.3060 -0.4263
